#N canvas 244 87 983 636 12;
#X msg 173 119 10 25 1.01 700;
#X obj 175 151 unpack f f f f;
#X floatatom 166 204 5 0 0 0 - - -;
#X floatatom 210 205 5 0 0 0 - - -;
#X floatatom 254 208 5 0 0 0 - - -;
#X floatatom 297 208 5 0 0 0 - - -;
#X obj 176 63 bng 15 250 50 0 empty empty empty 17 7 0 10 -262144 -1
-1;
#X obj 499 68 bng 15 250 50 0 empty empty empty 17 7 0 10 -262144 -1
-1;
#X obj 529 251 print list;
#X obj 492 185 pack f f f f;
#X msg 451 106 1;
#X msg 491 107 2;
#X msg 530 108 3;
#X msg 570 108 4;
#X connect 0 0 1 0;
#X connect 1 0 2 0;
#X connect 1 1 3 0;
#X connect 1 2 4 0;
#X connect 1 3 5 0;
#X connect 6 0 0 0;
#X connect 7 0 10 0;
#X connect 7 0 13 0;
#X connect 7 0 12 0;
#X connect 7 0 11 0;
#X connect 9 0 8 0;
#X connect 10 0 9 0;
#X connect 11 0 9 1;
#X connect 12 0 9 2;
#X connect 13 0 9 3;
