#N canvas 378 181 805 484 12;
#X msg 235 150 60;
#X obj 249 249 makenote 80 500;
#X obj 271 367 noteout 1;
#X obj 282 82 t b b b;
#X obj 308 32 bng 15 250 50 0 empty empty empty 17 7 0 10 -262144 -1
-1;
#X msg 300 151 64;
#X msg 356 151 67;
#X connect 0 0 1 0;
#X connect 1 0 2 0;
#X connect 1 1 2 1;
#X connect 3 0 0 0;
#X connect 3 1 5 0;
#X connect 3 2 6 0;
#X connect 4 0 3 0;
#X connect 5 0 1 0;
#X connect 6 0 1 0;
