#N canvas 0 23 1440 846 12;
#X msg 148 117 60;
#X obj 148 180 makenote 80 500;
#X obj 148 207 noteout 1;
#X obj 148 90 t b b b;
#X obj 148 66 bng 15 250 50 0 empty empty empty 17 7 0 10 -262144 -1
-1;
#X msg 186 117 64;
#X msg 242 117 67;
#X obj 110 312 noteout 1;
#X msg 78 267 60 80;
#X msg 143 267 60 0;
#X text 59 11 here is an example of a makenote instance \, with three
notes triggered producing a chord \; MIDI I/O settings: IAC Driver
Bus;
#X text 74 239 this is an midi instance without makenote;
#X obj 119 475 t b b;
#X msg 119 510 60;
#X msg 172 511 90;
#X obj 119 545 makenote 80 300;
#X obj 119 580 noteout 1;
#X obj 119 440 spigot;
#X floatatom 45 459 5 0 0 0 - - -;
#X msg 119 405 100;
#X msg 217 405 0;
#X msg 174 405 1;
#X text 115 357 spigot bang sending 100;
#X obj 643 184 t b b;
#X msg 643 216 60;
#X msg 688 228 90;
#X obj 643 248 makenote 80 300;
#X obj 635 304 noteout 1;
#X obj 643 152 spigot;
#X floatatom 589 198 5 0 0 0 - - -;
#X floatatom 643 121 5 0 0 0 - - -;
#X floatatom 643 58 5 0 0 0 - - -;
#X text 524 23 here is the same model using a binary;
#X obj 643 89 > 100;
#X obj 534 534 t b b;
#X obj 492 601 makenote 80 300;
#X obj 492 635 noteout 1;
#X msg 534 568 64;
#X msg 584 567 61;
#X obj 441 536 t b b;
#X msg 441 570 60;
#X msg 492 567 67;
#X obj 490 473 moses 50;
#X obj 490 507 bng 15 250 50 0 empty empty empty 17 7 0 10 -262144
-1 -1;
#X obj 534 503 bng 15 250 50 0 empty empty empty 17 7 0 10 -262144
-1 -1;
#X floatatom 561 503 5 0 0 0 - - -;
#X floatatom 441 503 5 0 0 0 - - -;
#X floatatom 490 440 5 0 0 0 - - -;
#X text 422 407 conditional using moses (50/50);
#X connect 0 0 1 0;
#X connect 1 0 2 0;
#X connect 1 1 2 1;
#X connect 3 0 0 0;
#X connect 3 1 5 0;
#X connect 3 2 6 0;
#X connect 4 0 3 0;
#X connect 5 0 1 0;
#X connect 6 0 1 0;
#X connect 8 0 7 0;
#X connect 9 0 7 0;
#X connect 12 0 13 0;
#X connect 12 1 14 0;
#X connect 13 0 15 0;
#X connect 14 0 15 0;
#X connect 15 0 16 0;
#X connect 15 1 16 1;
#X connect 17 0 18 0;
#X connect 17 0 12 0;
#X connect 19 0 17 0;
#X connect 20 0 17 1;
#X connect 21 0 17 1;
#X connect 23 0 24 0;
#X connect 23 1 25 0;
#X connect 24 0 26 0;
#X connect 25 0 26 0;
#X connect 26 0 27 0;
#X connect 26 1 27 1;
#X connect 28 0 29 0;
#X connect 28 0 23 0;
#X connect 30 0 28 0;
#X connect 30 0 28 1;
#X connect 31 0 33 0;
#X connect 33 0 30 0;
#X connect 34 0 37 0;
#X connect 34 1 38 0;
#X connect 35 0 36 0;
#X connect 35 1 36 1;
#X connect 37 0 35 0;
#X connect 38 0 35 0;
#X connect 39 0 40 0;
#X connect 39 1 41 0;
#X connect 40 0 35 0;
#X connect 41 0 35 0;
#X connect 42 0 43 0;
#X connect 42 0 44 0;
#X connect 42 0 46 0;
#X connect 42 1 45 0;
#X connect 43 0 39 0;
#X connect 44 0 34 0;
#X connect 47 0 42 0;
