#N canvas 600 76 434 237 12;
#X msg 124 121 60;
#X obj 123 147 makenote 64 500;
#X obj 125 177 noteout 1;
#X msg 290 68 500;
#X msg 328 69 750;
#X obj 291 95 s tempo;
#X obj 123 93 metro;
#X obj 120 10 bng 15 250 50 0 empty empty empty 17 7 0 10 -262144 -1
-1;
#X msg 179 7 0;
#X obj 175 104 r tempo;
#X obj 265 145 r tempo;
#X obj 272 184 * 0.9;
#X msg 256 63 150;
#X floatatom 65 124 5 0 0 0 - - -;
#X connect 0 0 1 0;
#X connect 1 0 2 0;
#X connect 1 1 2 1;
#X connect 3 0 5 0;
#X connect 4 0 5 0;
#X connect 6 0 0 0;
#X connect 6 0 13 0;
#X connect 7 0 6 0;
#X connect 8 0 6 0;
#X connect 9 0 6 1;
#X connect 10 0 11 0;
#X connect 12 0 5 0;
#X connect 13 0 1 0;
