#N canvas 621 182 450 300 12;
#X msg 124 124 60;
#X obj 123 147 makenote 64 500;
#X obj 125 177 noteout 1;
#X msg 290 68 500;
#X msg 328 69 750;
#X obj 291 95 s tempo;
#X obj 123 97 metro;
#X obj 123 67 bng 15 250 50 0 empty empty empty 17 7 0 10 -262144 -1
-1;
#X msg 179 7 0;
#X obj 172 67 r tempo;
#X connect 0 0 1 0;
#X connect 1 0 2 0;
#X connect 1 1 2 1;
#X connect 3 0 5 0;
#X connect 4 0 5 0;
#X connect 6 0 0 0;
#X connect 7 0 6 0;
#X connect 8 0 6 0;
#X connect 9 0 6 1;
