#N canvas 713 48 727 603 12;
#X msg 169 269 Hello World;
#X obj 164 229 bng 15 250 50 0 empty empty empty 17 7 0 10 -262144
-1 -1;
#X obj 179 300 print;
#X msg 114 35 1;
#X msg 209 35 bang;
#X msg 164 34 0;
#X floatatom 291 42 5 0 0 0 - - -;
#X obj 139 170 metro 500;
#X msg 218 403 10;
#X msg 283 417 5;
#X obj 249 462 +;
#X obj 211 344 bng 15 250 50 0 empty empty empty 17 7 0 10 -262144
-1 -1;
#X obj 210 369 t b b;
#X floatatom 254 537 5 0 0 0 - - -;
#X obj 442 50 bng 15 250 50 0 empty empty empty 17 7 0 10 -262144 -1
-1;
#X obj 443 90 t b b b;
#X floatatom 561 279 5 0 0 0 - - -;
#X floatatom 557 223 5 0 0 0 - - -;
#X msg 463 145 60000;
#X obj 464 191 /;
#X obj 464 222 i;
#X obj 420 286 metro;
#X floatatom 559 163 5 0 0 0 - - -;
#X floatatom 347 332 5 0 0 0 - - -;
#X obj 421 356 i;
#X obj 506 375 + 1;
#X floatatom 430 407 5 0 0 0 - - -;
#X obj 432 445 % 8;
#X floatatom 439 499 5 0 0 0 - - -;
#X floatatom 105 429 5 0 0 0 - - -;
#X msg 590 357 0;
#X obj 588 66 loadbang;
#X msg 612 112 60;
#X msg 370 109 0;
#X connect 0 0 2 0;
#X connect 1 0 0 0;
#X connect 3 0 7 0;
#X connect 5 0 7 0;
#X connect 6 0 7 1;
#X connect 7 0 1 0;
#X connect 8 0 10 0;
#X connect 9 0 10 1;
#X connect 10 0 13 0;
#X connect 11 0 12 0;
#X connect 12 0 8 0;
#X connect 12 1 9 0;
#X connect 14 0 15 0;
#X connect 15 0 21 0;
#X connect 15 1 18 0;
#X connect 15 2 22 0;
#X connect 18 0 19 0;
#X connect 19 0 20 0;
#X connect 19 0 17 0;
#X connect 20 0 21 1;
#X connect 20 0 16 0;
#X connect 21 0 23 0;
#X connect 21 0 24 0;
#X connect 22 0 19 1;
#X connect 24 0 25 0;
#X connect 24 0 26 0;
#X connect 25 0 24 1;
#X connect 26 0 27 0;
#X connect 27 0 28 0;
#X connect 30 0 24 1;
#X connect 31 0 32 0;
#X connect 32 0 22 0;
#X connect 33 0 21 0;
