#N canvas 168 186 468 603 12;
#X msg 169 269 Hello World;
#X obj 164 229 bng 15 250 50 0 empty empty empty 17 7 0 10 -262144
-1 -1;
#X obj 179 300 print;
#X msg 114 35 1;
#X msg 209 35 bang;
#X msg 164 34 0;
#X floatatom 291 42 5 0 0 0 - - -;
#X obj 139 170 metro 500;
#X msg 218 403 10;
#X msg 283 417 5;
#X obj 249 462 +;
#X obj 211 344 bng 15 250 50 0 empty empty empty 17 7 0 10 -262144
-1 -1;
#X obj 210 369 t b b;
#X floatatom 254 537 5 0 0 0 - - -;
#X connect 0 0 2 0;
#X connect 1 0 0 0;
#X connect 3 0 7 0;
#X connect 5 0 7 0;
#X connect 6 0 7 1;
#X connect 7 0 1 0;
#X connect 8 0 10 0;
#X connect 9 0 10 1;
#X connect 10 0 13 0;
#X connect 11 0 12 0;
#X connect 12 0 8 0;
#X connect 12 1 9 0;
